PathFileType	4	(X/Y/Z)	./resultDataOpenSim/trcMotMarkerGrf/sub06/qtm-04-03.trc
DataRate	CameraRate	NumFrames	NumMarkers	Units	OrigDataRate	OrigDataStartFrame	OrigNumFrames
250.000000	250.000000	9	24	m	250.000000	256	510
Frame#	Time	L.Toe.Tip			R.Toe.Tip			L.Ankle.Lat			R.Ankle.Lat			L.Ankle.Med			R.Ankle.Med			L.Heel			R.Heel			L.Knee.Lat			R.Knee.Lat			L.Knee.Med			R.Knee.Med			L.Thigh.Upper			R.Thigh.Upper			L.ASIS			R.ASIS			V.Sacral			L.Acromium			R.Acromium			C7			L.Elbow			R.Elbow			L.Wrist.Lat			R.Wrist.Lat
		X1	Y1	Z1	X2	Y2	Z2	X3	Y3	Z3	X4	Y4	Z4	X5	Y5	Z5	X6	Y6	Z6	X7	Y7	Z7	X8	Y8	Z8	X9	Y9	Z9	X10	Y10	Z10	X11	Y11	Z11	X12	Y12	Z12	X13	Y13	Z13	X14	Y14	Z14	X15	Y15	Z15	X16	Y16	Z16	X17	Y17	Z17	X18	Y18	Z18	X19	Y19	Z19	X20	Y20	Z20	X21	Y21	Z21	X22	Y22	Z22	X23	Y23	Z23	X24	Y24	Z24

256	1.02	0.072045747	-0.039972176	-0.013833385	0.582723	0.10896305	0.16608019	-0.042175547	0.02122391	-0.034129159	0.44725081	0.10774223	0.16856322	-0.032395449	0.038169583	0.051024169	0.47558382	0.13692776	0.085520695	-0.11536431	0.010500275	0.01557628	0.40726716	0.077498749	0.099105587	0.079015063	0.37310584	-0.057048374	0.46331977	0.49933404	0.19859221	0.070856335	0.37442639	0.064337131	0.45328204	0.48208142	0.073791703	0.16640972	0.74949568	-0.12592714	0.20791216	0.76436877	0.22485161	0.25326001	0.7915923	-0.090417842	0.28478193	0.80791877	0.15278873	0.083853005	0.87859852	0.057612169	0.25671086	1.2766272	-0.14296638	0.2417964	1.2679193	0.21989578	0.17309601	1.3158784	0.033276252	0.27443378	0.95225425	-0.21083536	0.075815138	1.0011449	0.26845573	0.49541516	0.85073873	-0.14547144	0.1129868	0.77092317	0.32998227
257	1.024	0.072089657	-0.040009146	-0.013865295	0.6014322	0.10976476	0.16595949	-0.041527575	0.021837766	-0.034532666	0.46568549	0.10572704	0.16817896	-0.031925028	0.038711473	0.05071288	0.49376221	0.13551245	0.085147866	-0.11493695	0.011710704	0.015170783	0.4268899	0.074577109	0.098337513	0.082123691	0.37298327	-0.057123159	0.47014473	0.49760667	0.19826687	0.074124778	0.37425969	0.064166186	0.46072762	0.48026758	0.073477991	0.17161214	0.74846893	-0.12560089	0.21514545	0.76295949	0.22481843	0.25889734	0.79044489	-0.090685828	0.29185846	0.80660809	0.15242335	0.091731061	0.87701441	0.057760026	0.26290351	1.2754017	-0.14273249	0.24820087	1.2664201	0.22024174	0.17948819	1.3147296	0.033692423	0.2831748	0.9510261	-0.21041086	0.0815483	1.0002342	0.2682486	0.5048289	0.8517267	-0.14390882	0.11649263	0.76993796	0.33018538
258	1.028	0.072130019	-0.040044401	-0.013898451	0.61984248	0.1106148	0.16572189	-0.040913195	0.022474734	-0.034917828	0.48386603	0.10391987	0.16781482	-0.03138805	0.039273894	0.050433138	0.51161404	0.13429619	0.084707742	-0.1145159	0.012950783	0.014823685	0.44616717	0.071964775	0.09762557	0.085336632	0.37281957	-0.057188102	0.47686925	0.49563228	0.19789253	0.077529602	0.37400971	0.064009002	0.46806624	0.47827409	0.073126065	0.17681393	0.74741907	-0.12528142	0.22246523	0.76152756	0.22480852	0.26455337	0.78925349	-0.09094856	0.29895613	0.80524933	0.15207208	0.099804134	0.87539548	0.057763043	0.26912708	1.2741419	-0.14249559	0.25461545	1.2648753	0.22059323	0.18588071	1.3135428	0.034130928	0.29189076	0.94979336	-0.20994589	0.087337362	0.99924027	0.26808252	0.51417227	0.85264277	-0.14236016	0.12015825	0.76890343	0.33042206
259	1.032	0.072163033	-0.040071987	-0.013940514	0.63791213	0.11151865	0.16536783	-0.04030085	0.023114141	-0.035252872	0.50180258	0.10228909	0.16745602	-0.030766657	0.039856988	0.050184084	0.52909003	0.13327431	0.084232937	-0.11406976	0.014209041	0.014503933	0.46504084	0.069656364	0.096975607	0.088743032	0.37262286	-0.057274924	0.4835348	0.49344836	0.19748428	0.081091377	0.37366825	0.063854517	0.47530246	0.47611108	0.072728142	0.18201687	0.74631551	-0.12500928	0.22986217	0.76004828	0.22482214	0.27023746	0.78802306	-0.091204825	0.30605122	0.80384625	0.15172451	0.10754454	0.8737356	0.057859769	0.2753836	1.272852	-0.14225355	0.26105527	1.2632913	0.22095492	0.19229647	1.3123149	0.034567352	0.30059608	0.94857389	-0.20941996	0.093167285	0.9981655	0.2679595	0.5234464	0.85349044	-0.14082633	0.12402703	0.76782491	0.33069153
260	1.036	0.072187495	-0.040088246	-0.013994393	0.65557676	0.11247761	0.16491344	-0.039651196	0.023743497	-0.035527736	0.51949597	0.10079193	0.16708722	-0.030124867	0.040411556	0.049931012	0.54613587	0.13242571	0.083802122	-0.11356684	0.015470128	0.014171696	0.48345667	0.067634188	0.096400335	0.092434673	0.37239533	-0.057406278	0.49019085	0.49109978	0.19705662	0.084802099	0.37325872	0.063705874	0.482439	0.47379262	0.072271071	0.18723079	0.74515478	-0.12477857	0.23731569	0.75850673	0.22485209	0.27594769	0.78676326	-0.091437787	0.31314243	0.80240514	0.1513781	0.11456116	0.87207373	0.058339614	0.28167746	1.2715363	-0.14200599	0.26751401	1.2616657	0.22132359	0.19876369	1.3110493	0.03496194	0.30931366	0.94737343	-0.20876616	0.099032654	0.9970148	0.26788079	0.5326549	0.8542684	-0.1393087	0.12814348	0.76670623	0.3309919
261	1.04	0.072205291	-0.040100732	-0.014047689	0.67276114	0.11348503	0.16438693	-0.038951725	0.024375254	-0.035740968	0.53692026	0.09937951	0.1666901	-0.029546364	0.040884989	0.049640767	0.56271735	0.13173923	0.083485275	-0.11299599	0.016732343	0.013817184	0.50136682	0.065854052	0.095924003	0.096395763	0.37213082	-0.057558092	0.49685728	0.48861846	0.19660267	0.088609476	0.372825	0.063583856	0.48947234	0.47133755	0.071737627	0.19246649	0.74395207	-0.12456435	0.24480227	0.75689441	0.22489273	0.28164716	0.78548543	-0.091619638	0.32025392	0.80094152	0.15104445	0.12086261	0.87047539	0.059273491	0.2880106	1.2701985	-0.14175402	0.27397927	1.2599974	0.22169579	0.20529488	1.309758	0.035290967	0.31805759	0.94617792	-0.20792949	0.1049351	0.99579631	0.26784404	0.54180039	0.85497241	-0.13780782	0.1324797	0.76553977	0.33131821
262	1.044	0.072223127	-0.040120517	-0.014080119	0.68940007	0.11452916	0.16381079	-0.038208883	0.025024922	-0.035898315	0.55400251	0.098025491	0.16625023	-0.029021858	0.041303808	0.049339437	0.57882068	0.13122113	0.083309147	-0.11236634	0.018018592	0.013476355	0.51872824	0.064255253	0.095574659	0.10048099	0.37181993	-0.05766629	0.50350788	0.48601567	0.19609098	0.092466454	0.37240323	0.063505823	0.49639113	0.46876736	0.07111475	0.19773304	0.74272507	-0.12433631	0.25231445	0.75521635	0.224949	0.28727607	0.7842021	-0.091723055	0.32744429	0.79948192	0.15075546	0.12678792	0.86899355	0.060443768	0.2943836	1.268844	-0.14149633	0.28045208	1.2582944	0.22207516	0.21186665	1.3084588	0.035582775	0.32680068	0.94496347	-0.20697164	0.11087991	0.99451467	0.26784958	0.55088284	0.85560337	-0.13632312	0.1369128	0.7643064	0.33166102
263	1.048	0.07225034	-0.040144364	-0.014085602	0.70544609	0.11560345	0.16318453	-0.037434498	0.025697613	-0.036016302	0.57060082	0.096771476	0.16578272	-0.028443927	0.04176941	0.049101941	0.59442065	0.13087561	0.083245353	-0.11169313	0.019365639	0.013207478	0.53548409	0.062804962	0.095345882	0.10455028	0.37145561	-0.057690071	0.51011097	0.48330784	0.19549538	0.096391013	0.37199364	0.063470599	0.50319981	0.46610711	0.07040439	0.20304175	0.74148451	-0.12406855	0.25990569	0.75351145	0.22505787	0.29281542	0.78292111	-0.091750599	0.33479362	0.79805588	0.15055465	0.13277726	0.86760745	0.061548365	0.30079646	1.2674797	-0.14122798	0.28694398	1.2565695	0.22246985	0.21842428	1.3071678	0.035917964	0.33547227	0.94371773	-0.20606321	0.11687411	0.99317395	0.26789691	0.55989468	0.8561654	-0.13486044	0.14132494	0.76299649	0.33201201
264	1.052	0.072291256	-0.040158922	-0.014075678	0.72086062	0.1167092	0.16248864	-0.036636156	0.026397823	-0.036117525	0.58653594	0.095710152	0.16533372	-0.027723136	0.04235151	0.04896735	0.60943858	0.13067192	0.083223041	-0.11098545	0.020796177	0.013042801	0.55155512	0.061513312	0.095176775	0.10858847	0.37103204	-0.057644465	0.51669175	0.48055113	0.19483113	0.10044877	0.37156873	0.063468112	0.50993244	0.46338193	0.069621867	0.20840636	0.74023371	-0.12375152	0.26767852	0.7518422	0.22527915	0.29834039	0.78163947	-0.091751923	0.34232964	0.79667419	0.1504583	0.1391209	0.86623661	0.062455481	0.30724737	1.2661116	-0.14094333	0.29346117	1.2548329	0.22288564	0.22492819	1.305891	0.03636454	0.34401451	0.9424454	-0.20533948	0.1229236	0.99178255	0.26798239	0.56882019	0.85665727	-0.13343252	0.14572737	0.76162399	0.3323722
